<svg width="18" height="18" viewBox="0 0 18 18" fill="none" xmlns="http://www.w3.org/2000/svg">
<path d="M5.08333 12.8333H3.16667C2.72504 12.832 2.30189 12.656 1.98961 12.3437C1.67734 12.0314 1.50132 11.6083 1.5 11.1667V3.16667C1.50176 2.72518 1.67791 2.30228 1.99009 1.99009C2.30228 1.67791 2.72518 1.50176 3.16667 1.5H11.1667C11.6083 1.50132 12.0314 1.67734 12.3437 1.98961C12.656 2.30189 12.832 2.72504 12.8333 3.16667V5.08333M14.8333 16.5H6.83333C6.39131 16.5 5.96738 16.3244 5.65482 16.0118C5.34226 15.6993 5.16667 15.2754 5.16667 14.8333V6.83333C5.16667 6.39131 5.34226 5.96738 5.65482 5.65482C5.96738 5.34226 6.39131 5.16667 6.83333 5.16667H14.8333C15.2754 5.16667 15.6993 5.34226 16.0118 5.65482C16.3244 5.96738 16.5 6.39131 16.5 6.83333V14.8333C16.5 15.2754 16.3244 15.6993 16.0118 16.0118C15.6993 16.3244 15.2754 16.5 14.8333 16.5Z" stroke="#A3A3A3" stroke-width="1.66667" stroke-linecap="round" stroke-linejoin="round"/>
</svg>
