<svg width="22" height="22" viewBox="0 0 22 22" fill="none" xmlns="http://www.w3.org/2000/svg">
<path d="M17.8873 12.4121V17.8121C17.8818 18.3939 17.6483 18.9503 17.2369 19.3617C16.8255 19.7731 16.2691 20.0066 15.6873 20.0121H4.1873C3.60552 20.0066 3.04912 19.7731 2.63772 19.3617C2.22632 18.9503 1.99278 18.3939 1.9873 17.8121V6.31311C1.99252 5.73125 2.22598 5.1747 2.63744 4.76325C3.04889 4.35179 3.60544 4.11833 4.1873 4.11311H9.5873M19.4773 2.52311C19.2039 2.24044 18.8431 2.05828 18.4533 2.00611C18.3652 1.99378 18.2763 1.98743 18.1873 1.98711C17.7014 1.98342 17.2339 2.17258 16.8873 2.51311L13.0873 6.31311L9.2873 10.1131V12.7131H11.8873L15.6873 8.91311L19.4873 5.11311C19.6584 4.95917 19.7941 4.76991 19.8849 4.5584C19.9757 4.3469 20.0195 4.1182 20.0133 3.88811C20.0179 3.38092 19.8258 2.89167 19.4773 2.52311Z" stroke="#A3A3A3" stroke-width="2" stroke-linecap="round" stroke-linejoin="round"/>
</svg>
