<svg width="18" height="14" viewBox="0 0 18 14" fill="none" xmlns="http://www.w3.org/2000/svg">
<path d="M9 4.91656C9.48199 4.91665 9.94903 5.08386 10.3216 5.38969C10.6941 5.69553 10.949 6.12107 11.043 6.59381C11.1369 7.06655 11.0641 7.55724 10.8368 7.98228C10.6095 8.40731 10.2419 8.74039 9.79656 8.92477C9.35124 9.10915 8.85576 9.13341 8.39455 8.99343C7.93334 8.85345 7.53493 8.55788 7.26721 8.15708C6.9995 7.75629 6.87903 7.27506 6.92634 6.7954C6.97365 6.31575 7.18581 5.86733 7.52667 5.52656C7.72016 5.33312 7.94986 5.17968 8.20266 5.07502C8.45546 4.97035 8.72639 4.91651 9 4.91656ZM9 1.66656C10.1153 1.65045 11.2204 1.88116 12.236 2.34218C13.2517 2.8032 14.1529 3.48311 14.875 4.33323C15.5689 5.11989 16.119 6.02255 16.5 6.99989C16.119 7.97724 15.5689 8.8799 14.875 9.66656C14.1529 10.5167 13.2517 11.1966 12.236 11.6576C11.2204 12.1186 10.1153 12.3493 9 12.3332C7.8847 12.3493 6.77964 12.1186 5.76396 11.6576C4.74828 11.1966 3.84711 10.5167 3.125 9.66656C2.43107 8.8799 1.88101 7.97724 1.5 6.99989C1.88101 6.02255 2.43107 5.11989 3.125 4.33323C3.84711 3.48311 4.74828 2.8032 5.76396 2.34218C6.77964 1.88116 7.8847 1.65045 9 1.66656Z" stroke="#A3A3A3" stroke-width="1.66667" stroke-linecap="round" stroke-linejoin="round"/>
</svg>
