<svg width="24" height="24" viewBox="0 0 24 24" fill="none" xmlns="http://www.w3.org/2000/svg">
<path d="M18.6441 21H5.44409C5.31067 21.008 5.17708 20.9876 5.05212 20.9402C4.92716 20.8928 4.81368 20.8194 4.71917 20.7249C4.62466 20.6304 4.55127 20.5169 4.50386 20.392C4.45644 20.267 4.43607 20.1334 4.44409 20V12.8C4.43607 12.6666 4.45644 12.533 4.50386 12.408C4.55127 12.2831 4.62466 12.1696 4.71917 12.0751C4.81368 11.9806 4.92716 11.9072 5.05212 11.8598C5.17708 11.8124 5.31067 11.792 5.44409 11.8H7.74409H18.5441C18.6775 11.792 18.8111 11.8124 18.9361 11.8598C19.061 11.9072 19.1745 11.9806 19.269 12.0751C19.3635 12.1696 19.4369 12.2831 19.4843 12.408C19.5317 12.533 19.5521 12.6666 19.5441 12.8V20C19.5688 20.13 19.5613 20.2642 19.522 20.3906C19.4828 20.517 19.4131 20.6318 19.3191 20.725C19.1386 20.9013 18.8964 21 18.6441 21Z" fill="#A3A3A3"/>
<path d="M16.3441 11.8V7.3C16.3441 6.15957 15.8911 5.06585 15.0846 4.25944C14.2782 3.45303 13.1845 3 12.0441 3C10.9037 3 9.80993 3.45303 9.00353 4.25944C8.19712 5.06585 7.74409 6.15957 7.74409 7.3V11.8M7.74409 11.8H5.44409C5.31067 11.792 5.17708 11.8124 5.05212 11.8598C4.92716 11.9072 4.81368 11.9806 4.71917 12.0751C4.62466 12.1696 4.55127 12.2831 4.50386 12.408C4.45644 12.533 4.43607 12.6666 4.44409 12.8V20C4.43607 20.1334 4.45644 20.267 4.50386 20.392C4.55127 20.5169 4.62466 20.6304 4.71917 20.7249C4.81368 20.8194 4.92716 20.8928 5.05212 20.9402C5.17708 20.9876 5.31067 21.008 5.44409 21H18.6441C18.8964 21 19.1386 20.9013 19.3191 20.725C19.4131 20.6318 19.4828 20.517 19.522 20.3906C19.5613 20.2642 19.5688 20.13 19.5441 20V12.8C19.5521 12.6666 19.5317 12.533 19.4843 12.408C19.4369 12.2831 19.3635 12.1696 19.269 12.0751C19.1745 11.9806 19.061 11.9072 18.9361 11.8598C18.8111 11.8124 18.6775 11.792 18.5441 11.8H7.74409Z" stroke="#A3A3A3" stroke-width="2" stroke-linecap="round" stroke-linejoin="round"/>
<path d="M12 15.5V17.5" stroke="white" stroke-width="2" stroke-linecap="round" stroke-linejoin="round"/>
</svg>
