<svg width="20" height="20" viewBox="0 0 20 20" fill="none" xmlns="http://www.w3.org/2000/svg">
<path d="M1.3999 4.20002H18.5999M3.2999 4.20002V17C3.29396 17.5221 3.48622 18.0271 3.8379 18.413C4.01162 18.6002 4.22247 18.7491 4.45699 18.8502C4.69151 18.9512 4.94454 19.0023 5.1999 19H14.7999C15.0488 18.9958 15.2943 18.9416 15.5219 18.8408C15.7495 18.74 15.9545 18.5945 16.1249 18.413C16.4922 18.0342 16.6983 17.5277 16.6999 17V4.20002M7.9999 13.6V9.60002M11.9999 9.60002V13.6M7.3999 4.20002V1.90002C7.39337 1.66934 7.46844 1.44377 7.6119 1.26302C7.68404 1.17803 7.7743 1.11029 7.87605 1.06478C7.97781 1.01927 8.08847 0.997138 8.1999 1.00002H11.7999C11.9112 0.997073 12.0217 1.01918 12.1233 1.0647C12.2249 1.11022 12.315 1.178 12.3869 1.26302C12.5311 1.44342 12.6066 1.66916 12.5999 1.90002V4.20002" stroke="#A3A3A3" stroke-width="1.66667" stroke-linecap="round" stroke-linejoin="round"/>
</svg>
