<svg width="72" height="72" viewBox="0 0 72 72" fill="none" xmlns="http://www.w3.org/2000/svg">
<rect width="72" height="72" rx="15.265" fill="#006BFF"/>
<path fill-rule="evenodd" clip-rule="evenodd" d="M48.1444 29.7585C47.7724 26.9586 47.5863 25.5586 46.9791 24.4731C46.2492 23.1681 45.0919 22.1544 43.7021 21.6027C42.546 21.1438 41.1337 21.1438 38.3092 21.1438H24.6904C17.6728 21.1438 14.164 21.1438 12.2178 23.4014C10.2717 25.6591 10.7888 29.1296 11.8231 36.0706L12.3766 39.7847C13.165 45.0756 13.5592 47.721 15.3896 49.2988C17.22 50.8767 19.8947 50.8767 25.2439 50.8767H48.1372C49.6272 50.8767 50.7764 49.5647 50.5801 48.0877C50.4174 46.8629 49.3728 45.948 48.1372 45.948H20.4513C19.0814 45.948 17.9708 44.8374 17.9708 43.4675C17.9708 42.0976 19.0814 40.9871 20.4513 40.9871H38.3092C41.8963 40.9871 43.6898 40.9871 45.0237 40.3472C46.6258 39.5787 47.8438 38.1881 48.3946 36.4987C48.8532 35.0921 48.6169 33.3142 48.1444 29.7585Z" fill="white"/>
<path fill-rule="evenodd" clip-rule="evenodd" d="M48.1444 29.7585C47.7724 26.9586 47.5863 25.5586 46.9791 24.4731C46.2492 23.1681 45.0919 22.1544 43.7021 21.6027C42.546 21.1438 41.1337 21.1438 38.3092 21.1438H24.6904C17.6728 21.1438 14.164 21.1438 12.2178 23.4014C10.2717 25.6591 10.7888 29.1296 11.8231 36.0706L12.3766 39.7847C13.165 45.0756 13.5592 47.721 15.3896 49.2988C17.22 50.8767 19.8947 50.8767 25.2439 50.8767H48.1372C49.6272 50.8767 50.7764 49.5647 50.5801 48.0877C50.4174 46.8629 49.3728 45.948 48.1372 45.948H20.4513C19.0814 45.948 17.9708 44.8374 17.9708 43.4675C17.9708 42.0976 19.0814 40.9871 20.4513 40.9871H38.3092C41.8963 40.9871 43.6898 40.9871 45.0237 40.3472C46.6258 39.5787 47.8438 38.1881 48.3946 36.4987C48.8532 35.0921 48.6169 33.3142 48.1444 29.7585Z" fill="url(#paint0_linear_513_370)" fill-opacity="0.3"/>
<path d="M54.7547 21.1438C55.9809 21.1438 57.0193 22.0479 57.1881 23.2623L60.631 48.03C60.8363 49.5072 59.6889 50.8251 58.1976 50.8251C56.9714 50.8251 55.933 49.921 55.7642 48.7065L52.3213 23.9389C52.116 22.4617 53.2634 21.1438 54.7547 21.1438Z" fill="white"/>
<path d="M54.7547 21.1438C55.9809 21.1438 57.0193 22.0479 57.1881 23.2623L60.631 48.03C60.8363 49.5072 59.6889 50.8251 58.1976 50.8251C56.9714 50.8251 55.933 49.921 55.7642 48.7065L52.3213 23.9389C52.116 22.4617 53.2634 21.1438 54.7547 21.1438Z" fill="url(#paint1_linear_513_370)" fill-opacity="0.3"/>
<g filter="url(#filter0_d_513_370)">
<path fill-rule="evenodd" clip-rule="evenodd" d="M16.5627 21.4243C14.5593 21.706 13.1926 22.2704 12.2178 23.4012C10.2717 25.6588 10.7888 29.1293 11.8231 36.0703L12.3766 39.7845C13.165 45.0753 13.5592 47.7207 15.3896 49.2986C17.22 50.8765 19.8947 50.8765 25.2439 50.8765H38.5134C35.8588 49.4956 33.3699 47.8402 31.0843 45.9477H20.4513C19.0814 45.9477 17.9708 44.8372 17.9708 43.4673C17.9708 42.0974 19.0814 40.9869 20.4513 40.9869H26.023C21.3024 35.5131 17.9674 28.8106 16.5627 21.4243Z" fill="white" fill-opacity="0.2" shape-rendering="crispEdges"/>
</g>
<defs>
<filter id="filter0_d_513_370" x="4.67594" y="14.1544" width="42.1507" height="43.992" filterUnits="userSpaceOnUse" color-interpolation-filters="sRGB">
<feFlood flood-opacity="0" result="BackgroundImageFix"/>
<feColorMatrix in="SourceAlpha" type="matrix" values="0 0 0 0 0 0 0 0 0 0 0 0 0 0 0 0 0 0 127 0" result="hardAlpha"/>
<feOffset dx="1.04353"/>
<feGaussianBlur stdDeviation="3.63497"/>
<feComposite in2="hardAlpha" operator="out"/>
<feColorMatrix type="matrix" values="0 0 0 0 0 0 0 0 0 0 0 0 0 0 0 0 0 0 0.05 0"/>
<feBlend mode="normal" in2="BackgroundImageFix" result="effect1_dropShadow_513_370"/>
<feBlend mode="normal" in="SourceGraphic" in2="effect1_dropShadow_513_370" result="shape"/>
</filter>
<linearGradient id="paint0_linear_513_370" x1="30.7522" y1="21.1438" x2="30.7522" y2="50.8767" gradientUnits="userSpaceOnUse">
<stop stop-color="#5866B0"/>
<stop offset="1" stop-color="#E7ECF3"/>
</linearGradient>
<linearGradient id="paint1_linear_513_370" x1="61.0195" y1="35.9844" x2="51.9328" y2="35.9844" gradientUnits="userSpaceOnUse">
<stop stop-color="#5866B0"/>
<stop offset="1" stop-color="#E7ECF3"/>
</linearGradient>
</defs>
</svg>
