<svg width="20" height="20" viewBox="0 0 20 20" fill="none" xmlns="http://www.w3.org/2000/svg">
<path d="M10.1 1.80003C10.4084 1.54448 10.7594 1.34542 11.137 1.21203C11.5429 1.07015 11.9701 0.998458 12.4 1.00003C13.3283 1.00003 14.2185 1.36877 14.8749 2.02515C15.5313 2.68153 15.9 3.57177 15.9 4.50003C15.9 5.42828 15.5313 6.31852 14.8749 6.9749C14.2185 7.63128 13.3283 8.00003 12.4 8.00003C11.97 8.00176 11.5428 7.92972 11.137 7.78702C10.7593 7.65435 10.4082 7.4556 10.1 7.20003M14.2 19H19C19.0223 16.948 18.3333 14.9515 17.05 13.35C16.4978 12.6379 15.7941 12.0576 14.9898 11.6511C14.1855 11.2447 13.3009 11.0223 12.4 11C12.0521 10.9975 11.7046 11.027 11.362 11.088C11.0283 11.1462 10.7044 11.2513 10.4 11.4M14.2 19C14.2224 16.948 13.5333 14.9515 12.25 13.35C11.6978 12.6379 10.9941 12.0576 10.1898 11.6511C9.38553 11.2447 8.5009 11.0223 7.60004 11C6.69917 11.0223 5.81454 11.2447 5.01027 11.6511C4.20601 12.0576 3.50226 12.6379 2.95004 13.35C1.66677 14.9515 0.977724 16.948 1.00004 19H14.2ZM7.60004 1.00003C8.40978 1.00008 9.19445 1.28091 9.82035 1.79464C10.4463 2.30838 10.8747 3.02325 11.0326 3.81744C11.1905 4.61163 11.0682 5.43601 10.6864 6.15011C10.3046 6.86421 9.6871 7.42386 8.93898 7.73369C8.19086 8.04351 7.35845 8.08436 6.58359 7.84926C5.80873 7.61416 5.13936 7.11766 4.68953 6.44436C4.2397 5.77106 4.03724 4.96262 4.11666 4.15678C4.19607 3.35094 4.55244 2.59757 5.12504 2.02503C5.44984 1.69972 5.83566 1.44172 6.26037 1.26583C6.68508 1.08994 7.14034 0.99961 7.60004 1.00003Z" stroke="#A3A3A3" stroke-width="2" stroke-linecap="round" stroke-linejoin="round"/>
</svg>
