<svg width="20" height="20" viewBox="0 0 20 20" fill="none" xmlns="http://www.w3.org/2000/svg">
<path d="M10.0001 1.00001L9.99879 2.00001H10.0001L10.0001 1.00001ZM3.63609 3.63601L4.3432 4.34312L4.34411 4.3422L3.63609 3.63601ZM7.00009 12C6.44781 12 6.00009 12.4477 6.00009 13C6.00009 13.5523 6.44781 14 7.00009 14V12ZM10.0001 14C10.5524 14 11.0001 13.5523 11.0001 13C11.0001 12.4477 10.5524 12 10.0001 12V14ZM8.01209 5.84401L7.0243 5.68822L7.02402 5.69002L8.01209 5.84401ZM8.84409 5.01201L8.99988 5.9998L9.00005 5.99977L8.84409 5.01201ZM11.5001 5.00001V4.00001V5.00001ZM7.00009 15C7.00009 15.5523 7.44781 16 8.00009 16C8.55238 16 9.00009 15.5523 9.00009 15H7.00009ZM7.00009 9.00001C6.44781 9.00001 6.00009 9.44772 6.00009 10C6.00009 10.5523 6.44781 11 7.00009 11V9.00001ZM10.0001 2.00001C11.8509 2.00002 13.6445 2.64179 15.0752 3.81597L16.344 2.26996C14.5556 0.802239 12.3137 2.76566e-05 10.0001 7.62939e-06L10.0001 2.00001ZM15.0752 3.81597C16.5059 4.99014 17.4852 6.62407 17.8463 8.43935L19.8079 8.04918C19.3565 5.78008 18.1324 3.73767 16.344 2.26996L15.0752 3.81597ZM17.8463 8.43935C18.2074 10.2546 17.9278 12.1389 17.0554 13.7712L18.8192 14.714C19.9098 12.6737 20.2592 10.3183 19.8079 8.04918L17.8463 8.43935ZM17.0554 13.7712C16.1829 15.4035 14.7714 16.6828 13.0614 17.3911L13.8268 19.2388C15.9642 18.3535 17.7286 16.7544 18.8192 14.714L17.0554 13.7712ZM13.0614 17.3911C11.3515 18.0993 9.44882 18.1928 7.67768 17.6555L7.0971 19.5694C9.31102 20.241 11.6893 20.1242 13.8268 19.2388L13.0614 17.3911ZM7.67768 17.6555C5.90654 17.1182 4.37649 15.9834 3.34823 14.4445L1.68528 15.5557C2.97061 17.4793 4.88317 18.8978 7.0971 19.5694L7.67768 17.6555ZM3.34823 14.4445C2.31997 12.9056 1.85712 11.0577 2.03854 9.21582L0.0481731 9.01977C-0.178609 11.3222 0.399953 13.632 1.68528 15.5557L3.34823 14.4445ZM2.03854 9.21582C2.21997 7.37389 3.03444 5.65185 4.34319 4.34312L2.92899 2.9289C1.29305 4.56481 0.274956 6.71736 0.0481731 9.01977L2.03854 9.21582ZM4.34411 4.3422C5.08588 3.59852 5.9673 3.00876 6.93772 2.60681L6.17236 0.759045C4.95849 1.26184 3.85594 1.99956 2.92808 2.92981L4.34411 4.3422ZM6.93772 2.60681C7.90813 2.20486 8.94842 1.99864 9.99879 2.00001L10.0014 8.46386e-06C8.68751 -0.00170183 7.38624 0.256252 6.17236 0.759045L6.93772 2.60681ZM7.00009 14H10.0001V12H7.00009V14ZM9.00009 10V6.20001H7.00009V10H9.00009ZM9.00009 6.20001C9.00009 6.1017 9.00018 6.04751 9.00124 6.00785C9.00222 5.9709 9.00356 5.97623 9.00016 5.99799L7.02402 5.69002C6.99707 5.86296 7.00009 6.05214 7.00009 6.20001H9.00009ZM8.99988 5.9998L7.58567 4.58558C7.2867 4.88455 7.09017 5.27057 7.0243 5.68822L8.99988 5.9998ZM8.99988 5.9998L8.6883 4.02422C8.27066 4.09009 7.88464 4.28662 7.58567 4.58558L8.99988 5.9998ZM9.00005 5.99977C8.97628 6.00352 8.9698 6.00216 9.0075 6.00115C9.04733 6.00009 9.1018 6.00001 9.20009 6.00001V4.00001C9.05362 4.00001 8.86146 3.99688 8.68813 4.02424L9.00005 5.99977ZM9.20009 6.00001H11.5001V4.00001H9.20009V6.00001ZM11.5001 6.00001C11.8979 6.00001 12.2794 6.15804 12.5608 6.43935L13.975 5.02513C13.3186 4.36876 12.4284 4.00001 11.5001 4.00001V6.00001ZM12.5608 6.43935C12.8421 6.72065 13.0001 7.10218 13.0001 7.50001H15.0001C15.0001 6.57175 14.6313 5.68151 13.975 5.02513L12.5608 6.43935ZM13.0001 7.50001C13.0001 7.89783 12.8421 8.27936 12.5608 8.56067L13.975 9.97488C14.6313 9.3185 15.0001 8.42827 15.0001 7.50001H13.0001ZM12.5608 8.56067C12.2794 8.84197 11.8979 9.00001 11.5001 9.00001V11C12.4284 11 13.3186 10.6313 13.975 9.97488L12.5608 8.56067ZM11.5001 9.00001H8.00009V11H11.5001V9.00001ZM7.00009 10V15H9.00009V10H7.00009ZM8.00009 9.00001H7.00009V11H8.00009V9.00001Z" fill="#A3A3A3"/>
</svg>
