<svg width="20" height="20" viewBox="0 0 20 20" fill="none" xmlns="http://www.w3.org/2000/svg">
<path d="M8.00004 10.6999H12M1.30004 5.59993H18.7M1.60004 5.09993L2.90004 3.34992L4.20004 1.59992C4.28379 1.41628 4.41801 1.26022 4.58704 1.14993C4.77325 1.04339 4.98568 0.991407 5.20004 0.999925H14.9C15.0998 1.00086 15.2966 1.04809 15.475 1.13792C15.6457 1.21977 15.7921 1.3445 15.9 1.49992L17.2 3.24992L18.5 4.99993C18.5921 5.09647 18.653 5.21839 18.675 5.34993C18.6949 5.46548 18.7033 5.58272 18.7 5.69992V18.9999H1.30004V5.79993C1.29704 5.66704 1.32262 5.53507 1.37504 5.41293C1.4298 5.29543 1.50612 5.18926 1.60004 5.09993Z" stroke="#A3A3A3" stroke-width="2" stroke-linecap="round" stroke-linejoin="round"/>
</svg>
